<svg xmlns="http://www.w3.org/2000/svg" viewBox="0 0 140 32" fill="currentColor">
  <path d="M16 0C7.2 0 0 7.2 0 16s7.2 16 16 16 16-7.2 16-16S24.8 0 16 0zm0 28c-6.6 0-12-5.4-12-12S9.4 4 16 4s12 5.4 12 12-5.4 12-12 12z"/>
  <path d="M44.8 8.2v15.6h3.6V19c.8 1.2 2.2 1.8 4 1.8 3.8 0 6.4-2.8 6.4-6.8s-2.6-6.8-6.4-6.8c-1.8 0-3.2.6-4 1.8V8.2h-3.6zm6.4 9.6c-2 0-3.2-1.4-3.2-3.6s1.2-3.6 3.2-3.6 3.2 1.4 3.2 3.6-1.2 3.6-3.2 3.6zm18.4-9.6h-3.6v15.6h3.6V8.2zm8.8 0h-3.6v15.6H79v-5.8c0-2.8 1.4-4.4 3.6-4.4 1.8 0 2.8 1 2.8 3v7.2h3.6v-8c0-3.4-2-5.6-5.2-5.6-1.8 0-3.4.8-4.2 2V8.2zm28.4 7.8c0-4-2.8-6.8-6.8-6.8s-6.8 2.8-6.8 6.8 2.8 6.8 6.8 6.8 6.8-2.8 6.8-6.8zm-3.6 0c0 2.2-1.2 3.6-3.2 3.6s-3.2-1.4-3.2-3.6 1.2-3.6 3.2-3.6 3.2 1.4 3.2 3.6zm18.4-7.8h-3.6v15.6h3.6V8.2zm8.8 0h-3.6v15.6h3.6v-5.8c0-2.8 1.4-4.4 3.6-4.4 1.8 0 2.8 1 2.8 3v7.2h3.6v-8c0-3.4-2-5.6-5.2-5.6-1.8 0-3.4.8-4.2 2V8.2z"/>
</svg> 