<svg xmlns="http://www.w3.org/2000/svg" viewBox="0 0 120 32" fill="currentColor">
  <path d="M16 0C7.2 0 0 7.2 0 16s7.2 16 16 16 16-7.2 16-16S24.8 0 16 0zm0 24c-4.4 0-8-3.6-8-8s3.6-8 8-8 8 3.6 8 8-3.6 8-8 8z"/>
  <path d="M48.8 8.2c-4.5 0-7.8 3.2-7.8 8s3.3 8 7.8 8c3 0 5.4-1.4 6.5-3.9h-3.2c-.7 1-2 1.6-3.3 1.6-2.1 0-3.7-1.4-4.1-3.5h11c.1-.4.1-.8.1-1.2 0-4.8-3.3-8-7.8-8zm-4 6.7c.5-2 2-3.3 4-3.3s3.5 1.3 4 3.3h-8zM71.5 8.2c-2.2 0-4 1.1-5 2.7V8.5h-2.8v14.7h2.8v-7.4c0-2.7 1.5-4.3 3.7-4.3 2 0 3.2 1.2 3.2 3.4v8.3h2.8v-9c0-3.6-2.2-5.8-5.4-5.8zM87.9 18.3V8.5h-2.8v1.7c-1-1.3-2.6-2-4.4-2-4.2 0-7.4 3.2-7.4 8s3.2 8 7.4 8c1.8 0 3.4-.7 4.4-2v1.7h2.8v-5.6zm-6.8 4.7c-2.6 0-4.5-1.9-4.5-4.9s1.9-4.9 4.5-4.9 4.5 1.9 4.5 4.9-1.9 4.9-4.5 4.9zM93.9 23.2h2.8V2.8h-2.8v20.4zM111.5 8.2c-2.2 0-4 1.1-5 2.7V8.5h-2.8v14.7h2.8v-7.4c0-2.7 1.5-4.3 3.7-4.3 2 0 3.2 1.2 3.2 3.4v8.3h2.8v-9c0-3.6-2.2-5.8-5.4-5.8z"/>
</svg> 