<svg xmlns="http://www.w3.org/2000/svg" viewBox="0 0 100 32" fill="currentColor">
  <path d="M36.3 16.1c0-4.1 3-7.2 7.3-7.2 4.4 0 7.4 3 7.4 7.2 0 4.1-3 7.2-7.4 7.2-4.3 0-7.3-3.1-7.3-7.2zm11.9 0c0-2.8-1.8-4.9-4.6-4.9-2.7 0-4.5 2-4.5 4.9 0 2.8 1.8 4.9 4.5 4.9 2.8 0 4.6-2 4.6-4.9zM53.6 23h2.7v-7.5c0-2.2 1.3-3.8 3.5-3.8.4 0 1 .1 1.3.2V9.2c-.3-.1-.7-.1-1.1-.1-1.8 0-3.1 1.1-3.6 2.7h-.1V9.3h-2.7V23zm10.3-11.4H61v11.2h2.8v-7.5c0-2.1 1.5-3.4 3.2-3.4 1.8 0 2.9 1.2 2.9 3v7.9h2.8v-8.5c0-3-2-4.9-4.8-4.9-1.9 0-3.4 1-4 2.4h-.1V9.3h-2.7v2.3zm19.4 5.7v-.3c0-4.2 2.9-7.2 7.1-7.2 4.1 0 6.9 2.9 6.9 7.2v.9H86c.2 2.2 1.7 3.8 4.2 3.8 1.9 0 3.2-.8 3.6-2.1h2.8c-.6 2.6-3 4.4-6.4 4.4-4.4 0-7.4-3-7.4-7.2v.5zm11.2-1.4c-.3-2-1.7-3.5-4.1-3.5-2.3 0-3.8 1.5-4.1 3.5h8.2z"/>
  <path d="M15.4 1.6c-1.7-.4-3.5-.6-5.4-.6C4.5 1 0 5.5 0 11c0 3 1.3 5.7 3.4 7.5-.1.7-.3 1.5-.7 2.2-1.1 2.1-2.9 3.8-4.7 4.7 2.9.9 5.9.6 8.4-1 .9-.6 1.7-1.3 2.3-2.2.8.2 1.7.3 2.6.3 5.5 0 10-4.5 10-10 0-4.9-3.5-8.9-8-9.9zm-4.2 16.7c-.6 0-1.1-.1-1.6-.2.1-.2.2-.4.3-.6.4-.8.7-1.7.8-2.6 1.6 1.2 3.5 1.9 5.6 1.9.6 0 1.1-.1 1.7-.2-1.3 1-2.9 1.7-4.7 1.7h-2.1z"/>
</svg> 