<svg xmlns="http://www.w3.org/2000/svg" viewBox="0 0 150 32" fill="currentColor">
  <path d="M15.2 15.2H0V0h15.2zM32 15.2H16.8V0H32zM15.2 32H0V16.8h15.2zM32 32H16.8V16.8H32zM72 17.5c0-2.3-.8-4.1-2.3-5.4-1.5-1.3-3.7-2-6.4-2h-9.6v21.6h9.6c2.7 0 4.9-.7 6.4-2 1.5-1.3 2.3-3.1 2.3-5.4v-6.8zm-4.8 6.8c0 1.3-.4 2.3-1.2 3-.8.7-2 1-3.6 1h-4V14.1h4c1.6 0 2.8.3 3.6 1 .8.7 1.2 1.7 1.2 3v6.2zM89.6 10.1h-4.8L77.6 31.7h4.8l1.6-5.1h7.2l1.6 5.1h4.8L89.6 10.1zm-4 12.8l2.4-7.7 2.4 7.7h-4.8zM116 10.1h-4.8l-7.2 21.6h4.8l1.6-5.1h7.2l1.6 5.1h4.8L116 10.1zm-4 12.8l2.4-7.7 2.4 7.7h-4.8zM150.4 14.9h-8v-4.8h20.8v4.8h-8v16.8h-4.8V14.9z"/>
</svg> 