<svg xmlns="http://www.w3.org/2000/svg" viewBox="0 0 32 32" fill="currentColor">
  <path d="M16 4c-2.2 0-4 1.8-4 4 0 1.1.5 2.1 1.2 2.8-.5 1.3-1.2 2.2-2.2 2.7-.6.3-1.3.4-2 .4-.9 0-1.7-.2-2.4-.7-.8-.5-1.3-1.3-1.5-2.2-.2-.9-.1-1.9.3-2.7.4-.9 1.1-1.5 2-1.9.2-.1.3-.3.3-.5 0-.2-.1-.4-.3-.5-1.3-.6-2.2-1.9-2.2-3.4 0-2.2 1.8-4 4-4s4 1.8 4 4c0 .7-.2 1.4-.5 2 .8.3 1.5.8 2.1 1.4.6-.6 1.3-1.1 2.1-1.4-.3-.6-.5-1.3-.5-2 0-2.2 1.8-4 4-4s4 1.8 4 4c0 1.5-.9 2.8-2.2 3.4-.2.1-.3.3-.3.5 0 .2.1.4.3.5.9.4 1.6 1 2 1.9.4.8.5 1.8.3 2.7-.2.9-.7 1.7-1.5 2.2-.7.5-1.5.7-2.4.7-.7 0-1.4-.1-2-.4-1-.5-1.7-1.4-2.2-2.7.7-.7 1.2-1.7 1.2-2.8 0-2.2-1.8-4-4-4z"/>
</svg> 